<?xml version="1.0" standalone="no"?>
<!DOCTYPE svg PUBLIC "-//W3C//DTD SVG 20010904//EN"
 "http://www.w3.org/TR/2001/REC-SVG-20010904/DTD/svg10.dtd">
<svg version="1.0" xmlns="http://www.w3.org/2000/svg"
 width="300.000000pt" height="300.000000pt" viewBox="0 0 300.000000 300.000000"
 preserveAspectRatio="xMidYMid meet">
<metadata>
Created by potrace 1.10, written by Peter Selinger 2001-2011
</metadata>
<g transform="translate(0.000000,300.000000) scale(0.100000,-0.100000)"
fill="#000000" stroke="none">
<path d="M1370 2949 c-138 -16 -176 -23 -286 -54 -294 -86 -573 -285 -764
-545 -125 -170 -233 -434 -256 -625 -4 -27 -8 -53 -11 -57 -5 -10 -5 -326 0
-336 3 -4 7 -29 11 -57 20 -164 92 -364 190 -525 184 -306 497 -548 832 -644
159 -46 242 -57 414 -57 249 0 417 39 636 146 437 213 733 618 805 1100 10 68
14 358 6 373 -3 4 -7 30 -11 57 -15 128 -58 263 -131 411 -198 406 -572 698
-1010 790 -108 23 -323 34 -425 23z m410 -48 c191 -39 345 -104 515 -217 318
-212 525 -521 606 -904 32 -151 32 -411 0 -560 -26 -124 -50 -196 -99 -305
-34 -74 -95 -187 -114 -210 -5 -5 -26 -34 -48 -63 -268 -367 -740 -591 -1197
-569 -215 11 -403 61 -595 157 -151 76 -320 206 -419 323 -173 205 -283 430
-336 692 -27 134 -24 394 7 535 75 351 240 620 520 844 209 167 451 263 755
300 83 10 307 -3 405 -23z"/>
<path d="M1110 2577 c-59 -31 -548 -371 -577 -402 -41 -43 -57 -101 -43 -154
9 -35 37 -79 184 -291 l49 -71 -21 -22 c-40 -43 -42 -64 -42 -505 0 -394 2
-430 19 -467 36 -78 85 -105 191 -105 69 0 70 -1 113 -43 24 -24 70 -57 103
-72 51 -25 71 -29 149 -30 77 0 98 4 147 27 32 15 79 47 106 72 l49 46 371 0
c385 0 406 2 450 43 52 48 66 94 68 217 3 109 4 114 26 122 52 19 58 40 58
211 l0 159 -29 29 c-16 16 -37 29 -45 29 -13 0 -16 15 -16 98 0 111 -20 169
-67 198 -15 10 -30 19 -31 20 -2 1 39 53 92 115 90 105 96 114 96 156 0 25 -7
57 -16 71 -17 27 -128 126 -395 353 -107 91 -159 129 -184 133 -63 12 -102
-16 -241 -176 -70 -82 -130 -148 -133 -148 -3 1 -48 64 -100 141 -52 77 -107
159 -123 181 -48 66 -147 97 -208 65z m131 -80 c15 -12 122 -161 240 -332 117
-170 234 -340 261 -377 26 -37 48 -70 48 -73 0 -3 -21 -5 -47 -5 l-48 0 -221
323 c-237 346 -222 330 -295 312 -19 -5 -33 0 -56 19 -17 14 -36 26 -42 26
-17 0 -362 -241 -368 -257 -3 -8 -1 -19 6 -26 18 -18 13 -75 -9 -97 -11 -11
-20 -27 -20 -36 0 -16 65 -121 130 -209 l39 -53 -42 -5 c-30 -5 -45 -2 -52 8
-5 7 -56 81 -112 164 -111 162 -122 194 -84 243 16 20 158 121 511 360 67 46
120 51 161 15z m811 -115 c51 -42 105 -86 118 -97 14 -11 32 -29 40 -40 12
-15 8 -14 -19 5 -18 14 -40 30 -49 35 -9 6 -46 38 -82 72 -36 34 -78 72 -95
84 -43 32 -53 43 -28 30 12 -6 64 -46 115 -89z m99 -133 c283 -242 303 -262
294 -296 -3 -14 -49 -74 -101 -134 l-96 -109 -188 0 -189 0 -83 120 c-46 67
-111 161 -145 210 -62 88 -71 105 -55 112 4 2 63 67 131 146 120 140 148 164
182 155 9 -3 122 -95 250 -204z m-1038 89 c15 -7 27 -16 27 -20 0 -5 14 -8 30
-8 17 0 30 4 30 9 0 18 48 -2 59 -25 16 -37 14 -40 -13 -15 -13 12 -32 21 -42
20 -26 -4 -96 11 -111 23 -9 7 -13 7 -13 -1 0 -20 62 -43 104 -39 l41 5 65
-96 c223 -328 323 -471 327 -467 3 2 -3 16 -13 30 -9 15 -14 29 -10 33 3 3 6
1 6 -6 0 -7 5 -9 10 -6 6 4 9 2 8 -3 -2 -5 14 -26 34 -46 30 -30 44 -36 78
-36 52 0 81 15 73 37 -8 19 9 12 45 -21 15 -14 43 -23 80 -27 58 -6 -217 -13
-368 -9 -85 2 -122 19 -44 21 27 1 60 5 74 9 14 4 -128 9 -315 9 l-340 2 -88
130 c-88 128 -89 131 -70 151 13 14 18 36 18 75 l0 56 80 54 c44 31 106 73
138 95 32 22 56 42 53 45 -9 9 -274 -171 -281 -190 -4 -10 -8 -40 -10 -66 -1
-26 -8 -57 -14 -69 -9 -17 -8 -28 4 -52 9 -16 12 -30 8 -30 -5 0 -3 -4 3 -8 5
-4 42 -50 82 -103 42 -58 80 -99 94 -103 13 -3 68 -6 122 -6 94 0 117 -5 66
-15 -13 -3 -95 -5 -181 -6 -122 -1 -161 -4 -170 -15 -6 -8 -16 -14 -22 -14 -6
0 -19 -8 -30 -17 -19 -18 -20 -17 -7 6 6 13 9 36 6 52 -5 28 -5 29 18 14 15
-10 34 -13 57 -9 47 9 60 21 50 47 -5 12 -6 27 -4 33 2 6 -3 17 -12 24 -8 7
-15 19 -15 26 0 8 -4 14 -10 14 -5 0 -10 7 -10 15 0 8 -6 15 -13 15 -8 0 -22
18 -32 40 -10 22 -22 40 -27 40 -13 0 -9 34 6 56 9 13 14 40 12 73 -2 58 14
85 69 111 17 8 32 18 35 21 3 3 39 27 80 54 41 26 86 58 99 71 27 27 37 29 74
12z m236 -188 c10 -8 32 -50 27 -50 -7 0 -66 87 -66 97 0 4 8 -4 17 -17 9 -14
19 -27 22 -30z m219 5 c-13 -30 -24 -32 -38 -6 -9 17 -6 20 18 24 15 2 28 5
29 6 2 0 -3 -10 -9 -24z m-137 -123 c16 -41 4 -35 -21 11 -19 33 -20 39 -6 27
10 -8 22 -25 27 -38z m78 -116 c8 -9 11 -19 9 -22 -8 -7 -48 60 -47 77 0 8 6
2 12 -12 7 -14 18 -34 26 -43z m39 -53 c20 -20 43 -63 34 -63 -8 1 -64 80 -56
80 3 0 13 -7 22 -17z m778 -123 c-33 -40 -33 -49 4 -90 16 -18 27 -36 24 -39
-3 -3 -10 2 -15 11 -11 19 -76 43 -129 48 -8 0 3 7 25 15 23 8 54 31 73 55 19
23 37 39 39 36 3 -3 -6 -19 -21 -36z m-36 -115 c46 -24 60 -62 60 -162 l0 -88
-153 0 c-136 0 -156 -2 -192 -22 -100 -53 -143 -156 -111 -266 12 -42 26 -64
58 -92 61 -51 118 -65 275 -65 l133 0 0 -97 c0 -108 -14 -152 -60 -185 -23
-16 -57 -18 -378 -20 -349 -3 -353 -3 -347 17 33 105 30 185 -8 269 -35 77
-97 140 -176 179 -59 29 -74 32 -156 32 -82 0 -97 -3 -157 -33 -82 -40 -149
-111 -179 -190 -26 -69 -29 -177 -7 -239 l16 -43 -40 0 c-22 0 -55 7 -74 16
-64 31 -64 27 -64 499 0 282 4 433 11 446 5 11 25 29 42 39 31 19 57 20 755
20 627 0 727 -2 752 -15z m120 -276 c0 -5 -14 -9 -31 -9 -33 0 -33 0 -7 52
l13 26 12 -30 c7 -17 13 -34 13 -39z m-370 -19 c0 -5 -5 -10 -12 -10 -7 0 -31
-20 -55 -46 -24 -25 -43 -41 -43 -36 0 16 42 64 74 83 36 22 36 22 36 9z m410
-39 c5 -11 10 -76 10 -144 0 -168 12 -160 -217 -155 -162 3 -181 5 -213 25
-69 43 -94 123 -62 196 37 83 73 95 304 96 156 1 168 0 178 -18z m-1123 -246
c118 -35 203 -148 203 -270 0 -83 -23 -145 -76 -204 -59 -65 -127 -95 -219
-96 -250 -1 -387 294 -222 481 81 92 195 124 314 89z m1078 -97 c-4 -13 -11
-72 -15 -133 l-7 -110 -1 112 c-1 62 -6 115 -12 118 -17 10 -11 23 13 28 12 2
24 5 26 6 2 0 0 -9 -4 -21z m-838 -323 c12 -19 19 -35 15 -36 -15 -1 -41 -7
-61 -14 -12 -4 -21 -2 -21 4 0 6 5 11 10 11 6 0 9 3 9 8 -3 19 2 33 10 28 5
-4 7 3 4 14 -8 31 10 23 34 -15z m-612 -15 c15 -29 15 -30 -7 -29 -13 0 -41 4
-63 8 -32 7 -34 9 -13 10 16 1 33 10 40 21 17 27 25 25 43 -10z m1098 -17
c-84 -2 -222 -2 -305 0 -84 1 -16 3 152 3 168 0 236 -2 153 -3z"/>
<path d="M1142 2468 c-31 -31 3 -66 55 -56 19 3 30 35 16 48 -16 15 -60 19
-71 8z"/>
<path d="M611 2091 c-24 -44 0 -82 39 -61 30 16 25 74 -7 78 -14 2 -26 -4 -32
-17z"/>
<path d="M1861 2160 c-78 -88 -141 -163 -141 -167 0 -9 55 48 136 142 111 130
156 185 151 185 -3 0 -69 -72 -146 -160z"/>
<path d="M2095 2232 c-5 -4 -53 -56 -105 -117 -52 -60 -105 -121 -117 -135
-59 -68 -73 -86 -73 -92 0 -11 108 111 298 335 16 18 14 22 -3 9z"/>
<path d="M1024 2116 c-78 -34 -85 -127 -14 -183 21 -17 66 -16 106 3 72 34 65
148 -10 179 -42 18 -43 18 -82 1z m88 -17 c11 -6 26 -26 34 -45 13 -31 13 -39
-1 -68 -15 -32 -50 -56 -81 -56 -29 0 -71 30 -83 59 -33 78 54 151 131 110z"/>
<path d="M1256 1845 c-50 -13 -101 -54 -110 -89 -4 -16 2 -12 27 16 42 48 85
68 145 68 54 0 117 -34 145 -79 18 -28 24 -12 7 19 -15 27 -78 63 -126 70 -23
4 -63 1 -88 -5z"/>
<path d="M1204 986 c-5 -21 -12 -26 -36 -26 -47 0 -98 -57 -98 -108 0 -79 63
-122 179 -122 64 0 72 -2 86 -24 12 -19 14 -30 6 -44 -13 -25 -55 -36 -80 -20
-14 8 -26 9 -43 2 -38 -17 -69 -3 -82 36 -13 39 -36 49 -60 24 -40 -40 27
-134 96 -134 13 0 29 -9 36 -20 16 -26 38 -26 54 0 7 11 23 20 36 20 31 0 77
25 96 52 9 12 16 41 16 64 0 83 -77 133 -184 120 -61 -7 -86 6 -86 44 0 38 23
50 99 50 66 0 101 -21 101 -59 0 -24 25 -34 51 -21 23 13 24 41 4 80 -20 39
-53 60 -92 60 -25 0 -32 5 -35 23 -2 16 -11 23 -30 25 -22 3 -29 -2 -34 -22z
m72 -58 c-17 -4 -48 -5 -70 -2 l-39 6 38 17 c35 15 41 15 70 1 l32 -15 -31 -7z
m2 -155 c-21 -2 -57 -2 -80 0 -24 2 -7 4 37 4 44 0 63 -2 43 -4z m-14 -165
c-5 -8 -2 -9 9 -5 9 3 19 2 22 -2 7 -13 -47 -21 -90 -14 -35 6 -36 7 -20 20
24 17 89 18 79 1z"/>
</g>
</svg>
